<svg xmlns="http://www.w3.org/2000/svg" viewBox="0 0 1280 720" role="img" aria-labelledby="title desc">
  <title id="title">Nabu Eyes Dashboard Card preview</title>
  <desc id="desc">Stylised preview for the Nabu Eyes voice avatar dashboard card showing assist and media entities.</desc>
  <defs>
    <linearGradient id="bgGradient" x1="0%" y1="0%" x2="100%" y2="100%">
      <stop offset="0%" stop-color="#1f2933" />
      <stop offset="100%" stop-color="#0b1220" />
    </linearGradient>
    <linearGradient id="accentGradient" x1="0%" y1="0%" x2="0%" y2="100%">
      <stop offset="0%" stop-color="#4c6ef5" />
      <stop offset="100%" stop-color="#3bc9db" />
    </linearGradient>
    <linearGradient id="waveGradient" x1="0%" y1="0%" x2="100%" y2="0%">
      <stop offset="0%" stop-color="#f59f00" />
      <stop offset="50%" stop-color="#e64980" />
      <stop offset="100%" stop-color="#845ef7" />
    </linearGradient>
  </defs>
  <rect width="1280" height="720" fill="url(#bgGradient)" rx="48" />
  <rect x="120" y="120" width="1040" height="480" rx="36" fill="#101826" stroke="#202c3c" stroke-width="4" />
  <rect x="168" y="176" width="328" height="152" rx="24" fill="#121e2d" stroke="#223147" stroke-width="3" />
  <circle cx="216" cy="240" r="32" fill="#1f2d44" stroke="#3bc9db" stroke-width="6" />
  <circle cx="216" cy="240" r="14" fill="#4c6ef5" />
  <circle cx="288" cy="240" r="12" fill="#4c6ef5" opacity="0.85" />
  <circle cx="332" cy="240" r="8" fill="#4c6ef5" opacity="0.6" />
  <g fill="#ced4da" font-family="'Inter', 'Segoe UI', system-ui" font-size="28" font-weight="600">
    <text x="168" y="360">assist_satellite.living_room</text>
    <text x="168" y="402" fill="#748ffc" font-size="24" font-weight="500">state: responding</text>
  </g>
  <rect x="552" y="176" width="488" height="304" rx="28" fill="#131f2e" stroke="#223147" stroke-width="3" />
  <g stroke="url(#waveGradient)" stroke-width="20" stroke-linecap="round" fill="none" opacity="0.85">
    <path d="M592 320c40-80 120-80 160 0s120 80 160 0 120-80 160 0" />
  </g>
  <g fill="#f8f9fa" font-family="'Inter', 'Segoe UI', system-ui" font-size="30" font-weight="600">
    <text x="552" y="220">media_player.lounge</text>
    <text x="552" y="260" fill="#63e6be" font-size="24" font-weight="500">now playing</text>
  </g>
  <rect x="168" y="456" width="872" height="112" rx="20" fill="#131f2e" stroke="#223147" stroke-width="3" />
  <g fill="#ced4da" font-family="'Inter', 'Segoe UI', system-ui" font-size="24">
    <text x="192" y="512">countdown: assist_satellite_timer_started</text>
    <text x="192" y="552">alarm: assist_satellite_timer_finished</text>
  </g>
  <rect x="120" y="624" width="280" height="72" rx="16" fill="url(#accentGradient)" />
  <text x="160" y="670" fill="#f8f9fa" font-family="'Inter', 'Segoe UI', system-ui" font-size="30" font-weight="600">Nabu Eyes Voice Avatar</text>
</svg>
